<?xml version="1.0" encoding="UTF-8" standalone="no" ?>
<!DOCTYPE svg PUBLIC "-//W3C//DTD SVG 1.1//EN" "http://www.w3.org/Graphics/SVG/1.1/DTD/svg11.dtd">
<svg xmlns="http://www.w3.org/2000/svg" xmlns:xlink="http://www.w3.org/1999/xlink" version="1.1" width="1080" height="1080" viewBox="0 0 1080 1080" xml:space="preserve">
<desc>Created with Fabric.js 5.2.4</desc>
<defs>
</defs>
<g transform="matrix(1 0 0 1 540 540)" id="b57839f6-7638-4827-9b1c-9547cc5e0c24"  >
<rect style="stroke: none; stroke-width: 1; stroke-dasharray: none; stroke-linecap: butt; stroke-dashoffset: 0; stroke-linejoin: miter; stroke-miterlimit: 4; fill: rgb(255,255,255); fill-rule: nonzero; opacity: 1; visibility: hidden;" vector-effect="non-scaling-stroke"  x="-540" y="-540" rx="0" ry="0" width="1080" height="1080" />
</g>
<g transform="matrix(1 0 0 1 540 540)" id="cbcef5fc-cd02-4e43-bec5-1d4cdaf98cfe"  >
</g>
<g transform="matrix(1 0 0 2.43 512.74 519.81)"  >
<g style="" vector-effect="non-scaling-stroke"   >
		<g transform="matrix(2.88 0 0 1.09 -115.59 -16.86)"  >
<polygon style="stroke: none; stroke-width: 1; stroke-dasharray: none; stroke-linecap: butt; stroke-dashoffset: 0; stroke-linejoin: miter; stroke-miterlimit: 4; fill: rgb(250,168,25); fill-rule: nonzero; opacity: 1;" vector-effect="non-scaling-stroke"  points="13.39,0 -13.39,15.46 -13.39,-15.46 " />
</g>
		<g transform="matrix(2.88 0 0 1.09 -115.59 0)"  >
<polygon style="stroke: none; stroke-width: 1; stroke-dasharray: none; stroke-linecap: butt; stroke-dashoffset: 0; stroke-linejoin: miter; stroke-miterlimit: 4; fill: rgb(255,206,1); fill-rule: nonzero; opacity: 1;" vector-effect="non-scaling-stroke"  points="-13.39,0 13.39,-15.46 13.39,15.46 " />
</g>
		<g transform="matrix(2.88 0 0 1.09 -115.59 16.86)"  >
<polygon style="stroke: none; stroke-width: 1; stroke-dasharray: none; stroke-linecap: butt; stroke-dashoffset: 0; stroke-linejoin: miter; stroke-miterlimit: 4; fill: rgb(244,130,69); fill-rule: nonzero; opacity: 1;" vector-effect="non-scaling-stroke"  points="13.39,0 -13.39,15.46 -13.39,-15.46 " />
</g>
		<g transform="matrix(2.88 0 0 1.09 -115.59 33.73)"  >
<polygon style="stroke: none; stroke-width: 1; stroke-dasharray: none; stroke-linecap: butt; stroke-dashoffset: 0; stroke-linejoin: miter; stroke-miterlimit: 4; fill: rgb(238,58,61); fill-rule: nonzero; opacity: 1;" vector-effect="non-scaling-stroke"  points="-13.39,0 13.39,-15.46 13.39,15.46 " />
</g>
		<g transform="matrix(2.88 0 0 1.09 -115.59 -50.59)"  >
<polygon style="stroke: none; stroke-width: 1; stroke-dasharray: none; stroke-linecap: butt; stroke-dashoffset: 0; stroke-linejoin: miter; stroke-miterlimit: 4; fill: rgb(228,225,219); fill-rule: nonzero; opacity: 1;" vector-effect="non-scaling-stroke"  points="13.39,0 -13.39,15.46 -13.39,-15.46 " />
</g>
		<g transform="matrix(2.88 0 0 1.09 -115.59 -33.72)"  >
<polygon style="stroke: none; stroke-width: 1; stroke-dasharray: none; stroke-linecap: butt; stroke-dashoffset: 0; stroke-linejoin: miter; stroke-miterlimit: 4; fill: rgb(186,185,171); fill-rule: nonzero; opacity: 1;" vector-effect="non-scaling-stroke"  points="-13.39,0 13.39,-15.46 13.39,15.46 " />
</g>
		<g transform="matrix(2.88 0 0 1.09 -38.53 -33.72)"  >
<polygon style="stroke: none; stroke-width: 1; stroke-dasharray: none; stroke-linecap: butt; stroke-dashoffset: 0; stroke-linejoin: miter; stroke-miterlimit: 4; fill: rgb(173,203,126); fill-rule: nonzero; opacity: 1;" vector-effect="non-scaling-stroke"  points="13.39,0 -13.39,-15.46 -13.39,15.46 " />
</g>
		<g transform="matrix(2.88 0 0 1.09 -38.53 -16.86)"  >
<polygon style="stroke: none; stroke-width: 1; stroke-dasharray: none; stroke-linecap: butt; stroke-dashoffset: 0; stroke-linejoin: miter; stroke-miterlimit: 4; fill: rgb(119,191,67); fill-rule: nonzero; opacity: 1;" vector-effect="non-scaling-stroke"  points="-13.39,0 13.39,15.46 13.39,-15.46 " />
</g>
		<g transform="matrix(2.88 0 0 1.09 -38.53 0)"  >
<polygon style="stroke: none; stroke-width: 1; stroke-dasharray: none; stroke-linecap: butt; stroke-dashoffset: 0; stroke-linejoin: miter; stroke-miterlimit: 4; fill: rgb(45,163,74); fill-rule: nonzero; opacity: 1;" vector-effect="non-scaling-stroke"  points="13.39,0 -13.39,-15.46 -13.39,15.46 " />
</g>
		<g transform="matrix(2.88 0 0 1.09 -38.53 16.86)"  >
<polygon style="stroke: none; stroke-width: 1; stroke-dasharray: none; stroke-linecap: butt; stroke-dashoffset: 0; stroke-linejoin: miter; stroke-miterlimit: 4; fill: rgb(0,141,72); fill-rule: nonzero; opacity: 1;" vector-effect="non-scaling-stroke"  points="-13.39,0 13.39,15.46 13.39,-15.46 " />
</g>
		<g transform="matrix(2.88 0 0 1.09 -38.53 50.59)"  >
<polygon style="stroke: none; stroke-width: 1; stroke-dasharray: none; stroke-linecap: butt; stroke-dashoffset: 0; stroke-linejoin: miter; stroke-miterlimit: 4; fill: rgb(0,102,178); fill-rule: nonzero; opacity: 1;" vector-effect="non-scaling-stroke"  points="-13.39,0 13.39,15.46 13.39,-15.46 " />
</g>
		<g transform="matrix(2.88 0 0 1.09 -38.53 33.73)"  >
<polygon style="stroke: none; stroke-width: 1; stroke-dasharray: none; stroke-linecap: butt; stroke-dashoffset: 0; stroke-linejoin: miter; stroke-miterlimit: 4; fill: rgb(0,190,219); fill-rule: nonzero; opacity: 1;" vector-effect="non-scaling-stroke"  points="13.39,0 -13.39,-15.46 -13.39,15.46 " />
</g>
		<g transform="matrix(2.88 0 0 1.09 38.53 33.73)"  >
<polygon style="stroke: none; stroke-width: 1; stroke-dasharray: none; stroke-linecap: butt; stroke-dashoffset: 0; stroke-linejoin: miter; stroke-miterlimit: 4; fill: rgb(159,93,164); fill-rule: nonzero; opacity: 1;" vector-effect="non-scaling-stroke"  points="-13.39,0 13.39,15.46 13.39,-15.46 " />
</g>
		<g transform="matrix(2.88 0 0 1.09 38.53 50.59)"  >
<polygon style="stroke: none; stroke-width: 1; stroke-dasharray: none; stroke-linecap: butt; stroke-dashoffset: 0; stroke-linejoin: miter; stroke-miterlimit: 4; fill: rgb(91,44,134); fill-rule: nonzero; opacity: 1;" vector-effect="non-scaling-stroke"  points="13.39,0 -13.39,-15.46 -13.39,15.46 " />
</g>
		<g transform="matrix(2.88 0 0 1.09 115.59 -33.72)"  >
<polygon style="stroke: none; stroke-width: 1; stroke-dasharray: none; stroke-linecap: butt; stroke-dashoffset: 0; stroke-linejoin: miter; stroke-miterlimit: 4; fill: rgb(0,118,128); fill-rule: nonzero; opacity: 1;" vector-effect="non-scaling-stroke"  points="13.39,0 -13.39,15.46 -13.39,-15.46 " />
</g>
		<g transform="matrix(2.88 0 0 1.09 115.59 -50.59)"  >
<polygon style="stroke: none; stroke-width: 1; stroke-dasharray: none; stroke-linecap: butt; stroke-dashoffset: 0; stroke-linejoin: miter; stroke-miterlimit: 4; fill: rgb(91,163,173); fill-rule: nonzero; opacity: 1;" vector-effect="non-scaling-stroke"  points="-13.39,0 13.39,-15.46 13.39,15.46 " />
</g>
		<g transform="matrix(2.88 0 0 1.09 115.59 33.73)"  >
<polygon style="stroke: none; stroke-width: 1; stroke-dasharray: none; stroke-linecap: butt; stroke-dashoffset: 0; stroke-linejoin: miter; stroke-miterlimit: 4; fill: rgb(88,94,169); fill-rule: nonzero; opacity: 1;" vector-effect="non-scaling-stroke"  points="13.39,0 -13.39,15.46 -13.39,-15.46 " />
</g>
		<g transform="matrix(2.88 0 0 1.09 115.59 16.86)"  >
<polygon style="stroke: none; stroke-width: 1; stroke-dasharray: none; stroke-linecap: butt; stroke-dashoffset: 0; stroke-linejoin: miter; stroke-miterlimit: 4; fill: rgb(127,159,210); fill-rule: nonzero; opacity: 1;" vector-effect="non-scaling-stroke"  points="-13.39,0 13.39,-15.46 13.39,15.46 " />
</g>
</g>
</g>
</svg>